<svg aria-hidden="true" style="position: absolute; width: 0; height: 0; overflow: hidden;" version="1.1" xmlns="http://www.w3.org/2000/svg" xmlns:xlink="http://www.w3.org/1999/xlink">
<defs>
<symbol id="icon-close" viewBox="0 0 32 32">
<path d="M6.701 6.049c-0.264 0.104-0.475 0.298-0.598 0.543l-0.003 0.006c-0.044 0.117-0.070 0.251-0.070 0.392 0 0.169 0.037 0.328 0.103 0.472l-0.003-0.007c0.057 0.111 1.957 2.051 4.289 4.381l4.187 4.183-4.218 4.19c-2.968 2.949-4.247 4.254-4.315 4.404-0.053 0.118-0.085 0.256-0.085 0.401 0 0.459 0.31 0.845 0.733 0.96l0.007 0.002c0.231 0.062 0.531 0.032 0.72-0.073 0.063-0.034 2.021-1.951 4.351-4.259l4.235-4.197 4.183 4.187c2.301 2.302 4.244 4.219 4.318 4.258 0.51 0.272 1.151 0.052 1.391-0.476 0.115-0.252 0.124-0.44 0.039-0.743-0.054-0.19-0.631-0.789-4.28-4.449l-4.218-4.23 4.171-4.144c2.294-2.279 4.208-4.22 4.253-4.314 0.095-0.198 0.108-0.582 0.026-0.799-0.107-0.233-0.286-0.417-0.509-0.527l-0.006-0.003c-0.219-0.094-0.609-0.094-0.83-0.002-0.102 0.043-1.877 1.767-4.349 4.223l-4.177 4.15-4.196-4.19c-2.308-2.305-4.272-4.228-4.364-4.274-0.252-0.126-0.552-0.151-0.785-0.065z"></path>
</symbol>
<symbol id="icon-search" viewBox="0 0 32 32">
<path d="M13.467 2.727c-4.067 0.384-7.749 2.956-9.577 6.687-0.766 1.534-1.214 3.343-1.214 5.256 0 3.311 1.342 6.308 3.512 8.476l0 0c1.797 1.797 4.015 2.928 6.612 3.373 0.899 0.153 2.711 0.164 3.627 0.021 0.867-0.142 1.629-0.34 2.364-0.596l-0.098 0.030c0.999-0.349 2.5-1.164 3.219-1.747l0.231-0.188 2.569 2.56c2.311 2.305 2.595 2.569 2.831 2.648 0.519 0.172 1.021 0.059 1.392-0.312s0.484-0.873 0.312-1.392c-0.079-0.236-0.343-0.52-2.648-2.831l-2.56-2.569 0.188-0.231c0.596-0.736 1.393-2.215 1.763-3.272 0.225-0.648 0.424-1.455 0.552-2.24 0.133-0.819 0.133-2.648 0-3.467-0.219-1.344-0.532-2.347-1.101-3.52-2.187-4.509-6.937-7.163-11.973-6.687zM15.653 5.389c3.265 0.373 6.013 2.316 7.416 5.241 0.584 1.182 0.926 2.573 0.926 4.044 0 2.856-1.288 5.412-3.314 7.117l-0.014 0.012c-1.608 1.363-3.706 2.192-5.997 2.192-1.93 0-3.723-0.588-5.209-1.594l0.033 0.021c-4.225-2.813-5.421-8.525-2.68-12.796 1.893-2.949 5.4-4.631 8.84-4.237z"></path>
</symbol>
<symbol id="icon-arrow-down" viewBox="0 0 32 32">
<path d="M15.52 5.424c-0.208 0.071-0.88 0.721-5.081 4.916-3.505 3.499-4.873 4.899-4.955 5.068-0.089 0.173-0.141 0.377-0.141 0.593 0 0.364 0.148 0.694 0.388 0.932l0 0c0.372 0.372 0.873 0.485 1.393 0.313 0.239-0.079 0.593-0.416 3.903-3.719l3.64-3.633v7.817c0 8.78-0.031 8.127 0.399 8.556 0.238 0.242 0.569 0.391 0.935 0.391s0.697-0.15 0.934-0.391l0-0c0.429-0.429 0.399 0.224 0.399-8.556v-7.817l3.64 3.633c3.309 3.303 3.664 3.64 3.903 3.719 0.52 0.172 1.021 0.059 1.393-0.313 0.24-0.238 0.388-0.568 0.388-0.932 0-0.216-0.052-0.42-0.145-0.6l0.003 0.007c-0.081-0.169-1.449-1.568-4.955-5.068-4.428-4.421-4.864-4.841-5.104-4.92-0.138-0.049-0.297-0.078-0.463-0.078-0.17 0-0.333 0.030-0.484 0.085l0.010-0.003z"></path>
</symbol>
<symbol id="icon-arrow-top" viewBox="0 0 32 32">
<path d="M15.524 5.425c-0.177 0.077-0.329 0.18-0.458 0.306l0-0c-0.431 0.431-0.4-0.224-0.4 8.557v7.817l-3.64-3.633c-3.309-3.303-3.664-3.64-3.903-3.719-0.52-0.172-1.021-0.059-1.392 0.312s-0.483 0.872-0.312 1.392c0.079 0.24 0.499 0.676 4.92 5.104 3.5 3.505 4.899 4.873 5.068 4.955 0.325 0.159 0.679 0.183 1.027 0.071 0.271-0.088 0.523-0.329 5.127-4.927 3.505-3.499 4.873-4.899 4.955-5.068 0.089-0.173 0.141-0.377 0.141-0.593 0-0.364-0.148-0.694-0.388-0.932l-0-0c-0.372-0.372-0.873-0.485-1.393-0.313-0.239 0.079-0.593 0.416-3.903 3.719l-3.64 3.633v-7.817c0-8.78 0.031-8.127-0.399-8.556-0.241-0.242-0.574-0.392-0.943-0.392-0.168 0-0.329 0.031-0.477 0.088l0.009-0.003z"></path>
</symbol>
<symbol id="icon-shopping-cart" viewBox="0 0 32 32">
<path d="M0.857 0.092c-0.469 0.165-0.857 0.727-0.857 1.241 0 0.323 0.159 0.695 0.399 0.935 0.392 0.392 0.439 0.399 2.957 0.399h2.217l1.673 8.387c0.981 4.915 1.739 8.585 1.829 8.867 0.404 1.239 1.389 2.183 2.711 2.595l0.4 0.125h7.173c7.729 0 7.355 0.013 8.072-0.279 1.034-0.45 1.832-1.28 2.228-2.309l0.010-0.028c0.133-0.376 2.331-11.744 2.331-12.060 0-0.288-0.169-0.669-0.399-0.899-0.433-0.433 0.593-0.399-11.625-0.399h-10.884l-0.555-2.787c-0.305-1.532-0.591-2.893-0.635-3.023-0.105-0.315-0.455-0.657-0.783-0.769-0.229-0.077-0.591-0.088-3.143-0.084-2.468 0.004-2.917 0.016-3.12 0.088zM29.035 9.427c-0.011 0.052-0.429 2.24-0.928 4.863-0.608 3.197-0.944 4.847-1.019 5.001-0.080 0.151-0.181 0.279-0.301 0.387l-0.001 0.001c-0.412 0.339-0.007 0.321-7.399 0.321s-6.987 0.017-7.399-0.321c-0.122-0.109-0.224-0.239-0.3-0.383l-0.004-0.007c-0.073-0.151-0.451-1.923-1.072-5.025 0.236 1.678-0.098 0.034-0.423-1.613l-0.536-3.249c0-0.055 1.912-0.068 9.701-0.068 9.212 0 9.701 0.005 9.68 0.093zM11.379 25.409c-1.169 0.283-2.045 1.393-2.045 2.591 0 1.44 1.227 2.667 2.667 2.667s2.667-1.227 2.667-2.667c0-1.461-1.245-2.684-2.709-2.663-0.209 0.006-0.407 0.032-0.6 0.076l0.021-0.004zM26.045 25.409c-1.169 0.283-2.045 1.393-2.045 2.591 0 1.44 1.227 2.667 2.667 2.667s2.667-1.227 2.667-2.667c0-1.461-1.245-2.684-2.709-2.663-0.209 0.006-0.407 0.032-0.6 0.076l0.021-0.004z"></path>
</symbol>
<symbol id="icon-moon" viewBox="0 0 32 32">
<path fill="#fff" style="fill: var(--color1, #fff)" d="M10.944 0c-0.005 0-0.010 0-0.015 0-2.115 0-4.133 0.411-5.98 1.158l0.107-0.038c5.973 2.412 10.112 8.163 10.112 14.88s-4.138 12.468-10.004 14.842l-0.107 0.038c1.742 0.709 3.764 1.12 5.881 1.12 8.837 0 16-7.163 16-16 0-8.834-7.159-15.996-15.993-16h-0z"></path>
</symbol>
<symbol id="icon-sun" viewBox="0 0 32 32">
<path fill="#fff" style="fill: var(--color1, #fff)" d="M26.667 16c0 5.891-4.776 10.667-10.667 10.667s-10.667-4.776-10.667-10.667v0c0-5.891 4.776-10.667 10.667-10.667s10.667 4.776 10.667 10.667v0zM17.357 0h-2.714v3.797h2.714v-3.797zM28.203 14.643v2.714h3.797v-2.714h-3.797zM14.643 32h2.714v-3.797h-2.714v3.797zM3.797 14.643h-3.797v2.714h3.797v-2.714zM28.273 5.645l-1.92-1.918-2.684 2.686 1.92 1.918 2.684-2.686zM23.671 25.587l2.684 2.686 1.918-1.92-2.684-2.684-1.92 1.92zM3.727 26.355l1.918 1.918 2.684-2.686-1.918-1.918-2.684 2.686zM8.331 6.413l-2.686-2.686-1.918 1.92 2.686 2.684 1.918-1.92zM23.326 1.711l-2.511-1.028-1.44 3.511 2.509 1.030 1.442-3.514zM26.778 21.884l3.514 1.44 1.028-2.509-3.514-1.44-1.028 2.509zM8.676 30.289l2.509 1.030 1.44-3.514-2.509-1.028-1.44 3.514zM5.222 10.118l-3.514-1.442-1.026 2.509 3.514 1.44 1.028-2.509zM27.78 12.542l3.503-1.466-1.045-2.5-3.503 1.466 1.045 2.5zM19.46 27.78l1.466 3.503 2.502-1.045-1.466-3.503-2.502 1.045zM4.22 19.46l-3.503 1.468 1.045 2.5 3.503-1.466-1.045-2.502zM12.54 4.22l-1.466-3.505-2.498 1.047 1.466 3.503 2.5-1.045z"></path>
</symbol>
<symbol id="icon-dollar-symbol" viewBox="0 0 32 32">
<path fill="#156963" style="fill: var(--color2, #156963)" d="M16 32c8.823 0 16-7.177 16-16 0-0.009 0-0.019 0-0.029 0-2.214-0.453-4.323-1.271-6.238l0.039 0.104c-0.098-0.23-0.323-0.389-0.584-0.389-0.35 0-0.633 0.283-0.633 0.633 0 0.088 0.018 0.172 0.050 0.248l-0.002-0.004c0.717 1.667 1.133 3.608 1.133 5.646 0 0.011 0 0.021-0 0.032v-0.002c0 8.125-6.609 14.735-14.734 14.735s-14.735-6.61-14.735-14.735c0-8.125 6.61-14.735 14.735-14.735 0.005 0 0.012 0 0.018 0 1.731 0 3.392 0.299 4.934 0.849l-0.103-0.032c0.062 0.022 0.134 0.035 0.208 0.035 0.35 0 0.633-0.283 0.633-0.633 0-0.275-0.175-0.509-0.42-0.596l-0.004-0.001c-1.563-0.562-3.367-0.887-5.247-0.887-0.007 0-0.014 0-0.020 0h0.001c-8.823 0-16 7.177-16 16s7.177 16 16 16z"></path>
<path fill="#156963" style="fill: var(--color2, #156963)" d="M22.273 4.115c-0.113-0.105-0.264-0.169-0.43-0.169-0.35 0-0.633 0.284-0.633 0.633 0 0.166 0.064 0.317 0.169 0.43l-0-0 2.945 2.945c0.114 0.114 0.273 0.185 0.447 0.185 0.17 0 0.324-0.067 0.437-0.175l-0 0 5.191-4.958c0.132-0.117 0.215-0.287 0.215-0.476 0-0.35-0.284-0.633-0.633-0.633-0.179 0-0.341 0.074-0.456 0.194l-0 0-4.744 4.531-2.507-2.507zM16 9.88c1.493 0.002 2.704 1.212 2.706 2.705v0c0 0.349 0.283 0.633 0.633 0.633s0.633-0.283 0.633-0.633v0c-0.003-1.969-1.436-3.602-3.315-3.917l-0.023-0.003v-1.253c0-0.349-0.283-0.633-0.633-0.633s-0.633 0.283-0.633 0.633v0 1.253c-1.901 0.319-3.331 1.952-3.331 3.919 0 2.191 1.774 3.967 3.963 3.971h0c0.005-0 0.010-0 0.016-0 1.494 0 2.705 1.211 2.705 2.705 0 1.489-1.202 2.696-2.689 2.705h-0.032l-0.031 0.001c-1.48-0.019-2.673-1.223-2.675-2.705v-0c0-0.349-0.283-0.633-0.633-0.633s-0.633 0.283-0.633 0.633v0c0.003 1.969 1.436 3.603 3.315 3.917l0.023 0.003v1.405c0 0.349 0.283 0.633 0.633 0.633s0.633-0.283 0.633-0.633v0-1.405c1.908-0.312 3.347-1.949 3.347-3.921 0-2.193-1.778-3.971-3.971-3.971-0.003 0-0.006 0-0.009 0h0c-0.022 0.001-0.048 0.001-0.074 0.001-1.495 0-2.707-1.212-2.707-2.707s1.212-2.707 2.707-2.707c0.026 0 0.052 0 0.077 0.001l-0.004-0z"></path>
</symbol>
<symbol id="icon-down-arrow" viewBox="0 0 32 32">
<path stroke-linejoin="round" stroke-linecap="round" stroke-miterlimit="4" stroke-width="4" d="M4 10l12 12 12-12"></path>
</symbol>
<symbol id="icon-fast" viewBox="0 0 32 32">
<path fill="#156963" style="fill: var(--color2, #156963)" d="M8.667 25.333h-2.667c-0.368 0-0.667-0.298-0.667-0.667s0.298-0.667 0.667-0.667v0h2.667c0.368 0 0.667 0.298 0.667 0.667s-0.298 0.667-0.667 0.667v0zM30.333 25.333h-1.667c-0.368 0-0.667-0.298-0.667-0.667s0.298-0.667 0.667-0.667v0h1.113l0.899-4.789c-0.012-2.451-2.105-4.544-4.679-4.544h-4.377l-2.121 9.333h3.832c0.368 0 0.667 0.298 0.667 0.667s-0.298 0.667-0.667 0.667v0h-4.667c-0 0-0 0-0 0-0.368 0-0.667-0.298-0.667-0.667 0-0.052 0.006-0.103 0.017-0.151l-0.001 0.005 2.424-10.667c0.069-0.3 0.334-0.52 0.65-0.52 0 0 0 0 0 0h4.909c3.308 0 6 2.692 6 6l-1.012 5.456c-0.059 0.312-0.329 0.544-0.654 0.544-0 0-0.001 0-0.001 0h0z"></path>
<path fill="#156963" style="fill: var(--color2, #156963)" d="M26 28c-1.837 0-3.333-1.495-3.333-3.333s1.496-3.333 3.333-3.333 3.333 1.495 3.333 3.333-1.496 3.333-3.333 3.333zM26 22.667c-1.103 0-2 0.897-2 2s0.897 2 2 2 2-0.897 2-2-0.897-2-2-2zM11.333 28c-1.837 0-3.333-1.495-3.333-3.333s1.496-3.333 3.333-3.333 3.333 1.495 3.333 3.333-1.496 3.333-3.333 3.333zM11.333 22.667c-1.103 0-2 0.897-2 2s0.897 2 2 2 2-0.897 2-2-0.897-2-2-2zM8.667 13.333h-5.333c-0.368 0-0.667-0.298-0.667-0.667s0.298-0.667 0.667-0.667v0h5.333c0.368 0 0.667 0.298 0.667 0.667s-0.298 0.667-0.667 0.667v0zM8.667 17.333h-6.667c-0.368 0-0.667-0.298-0.667-0.667s0.298-0.667 0.667-0.667v0h6.667c0.368 0 0.667 0.298 0.667 0.667s-0.298 0.667-0.667 0.667v0zM8.667 21.333h-8c-0.368 0-0.667-0.298-0.667-0.667s0.298-0.667 0.667-0.667v0h8c0.368 0 0.667 0.298 0.667 0.667s-0.298 0.667-0.667 0.667v0z"></path>
<path fill="#156963" style="fill: var(--color2, #156963)" d="M18.667 25.333h-4.667c-0.368 0-0.667-0.298-0.667-0.667s0.298-0.667 0.667-0.667v0h4.135l3.029-13.333h-15.164c-0.368 0-0.667-0.298-0.667-0.667s0.298-0.667 0.667-0.667v0h16c0 0 0 0 0 0 0.368 0 0.667 0.298 0.667 0.667 0 0.052-0.006 0.103-0.017 0.151l0.001-0.005-3.333 14.667c-0.069 0.3-0.334 0.52-0.65 0.52-0 0-0 0-0 0h0z"></path>
</symbol>
<symbol id="icon-headphones" viewBox="0 0 32 32">
<path fill="#156963" style="fill: var(--color2, #156963)" d="M16 0c-7.754 0-14.063 6.309-14.063 14.063v7.624c0.002 1.553 1.26 2.811 2.812 2.813h1.099c0.399 1.101 1.435 1.874 2.651 1.875h0c1.553-0.002 2.811-1.26 2.813-2.813v-7.623c-0.002-1.552-1.26-2.81-2.812-2.812h-0c-1.216 0.001-2.252 0.774-2.645 1.854l-0.006 0.020h-1.099c-0.329 0-0.644 0.057-0.937 0.161v-1.099c0-6.72 5.467-12.188 12.187-12.188s12.187 5.468 12.187 12.188v1.099c-0.279-0.102-0.601-0.161-0.936-0.161-0 0-0.001 0-0.001 0h-1.099c-0.399-1.101-1.435-1.874-2.651-1.875h-0c-1.553 0.002-2.811 1.26-2.813 2.813v7.625c0.003 1.553 1.262 2.811 2.816 2.811 0.29 0 0.57-0.044 0.833-0.125l-0.020 0.005c-0.363 1.164-1.43 1.995-2.692 1.996h-2.974c-0.399-1.101-1.435-1.874-2.651-1.875h-0c-1.553 0.002-2.811 1.26-2.813 2.813v0c0.002 1.552 1.26 2.81 2.812 2.812h0c1.217-0.002 2.253-0.774 2.645-1.856l0.006-0.020h2.973c2.587-0.003 4.684-2.099 4.688-4.686v-0.938h0.937c1.553-0.002 2.811-1.26 2.813-2.812v-7.625c0-7.754-6.309-14.063-14.063-14.063zM7.563 15.937c0-0.517 0.42-0.937 0.937-0.937s0.937 0.42 0.937 0.937v7.625c0 0.517-0.42 0.937-0.937 0.937s-0.937-0.42-0.937-0.937v-7.625zM4.75 16.875h0.937v5.75h-0.937c-0.517 0-0.937-0.421-0.937-0.938v-3.874c0-0.517 0.42-0.938 0.937-0.938zM16 30.125c-0.499-0.024-0.895-0.434-0.895-0.938s0.396-0.914 0.893-0.938l0.002-0c0.517 0 0.937 0.42 0.937 0.937s-0.42 0.938-0.937 0.938zM24.437 23.563c0 0.517-0.42 0.937-0.937 0.937s-0.937-0.42-0.937-0.937v-7.625c0-0.517 0.42-0.937 0.937-0.937s0.937 0.42 0.937 0.937v7.625zM28.187 21.687c0 0.517-0.42 0.938-0.937 0.938h-0.937v-5.751h0.937c0.517 0 0.937 0.421 0.937 0.938v3.875z"></path>
</symbol>
<symbol id="icon-left-arrow" viewBox="0 0 32 32">
<path d="M25.333 14.667h-15.813l4.84-5.814c0.18-0.226 0.289-0.515 0.289-0.83 0-0.737-0.598-1.335-1.335-1.335-0.401 0-0.761 0.177-1.006 0.457l-0.001 0.002-6.667 8c-0.045 0.063-0.085 0.13-0.12 0.2 0 0.066 0 0.106-0.094 0.173-0.060 0.153-0.092 0.316-0.093 0.48 0.001 0.164 0.033 0.327 0.093 0.48 0 0.067 0 0.107 0.094 0.173 0.035 0.070 0.075 0.137 0.12 0.2l6.667 8c0.246 0.294 0.613 0.48 1.024 0.48 0.001 0 0.002 0 0.002 0h-0c0.001 0 0.002 0 0.003 0 0.736 0 1.333-0.597 1.333-1.333 0-0.325-0.117-0.624-0.31-0.855l0.002 0.002-4.84-5.814h15.813c0.714-0.029 1.282-0.614 1.282-1.333s-0.568-1.304-1.28-1.333l-0.003-0z"></path>
</symbol>
<symbol id="icon-logo" viewBox="0 0 32 32">
<path fill="#156963" style="fill: var(--color2, #156963)" d="M13.778 1.283c0.637-0.374 1.404-0.595 2.222-0.595s1.585 0.221 2.243 0.607l-0.021-0.011 9.412 5.435c1.338 0.783 2.222 2.213 2.222 3.849v0 10.868c-0 1.636-0.884 3.066-2.201 3.838l-0.021 0.011-9.412 5.435c-0.637 0.374-1.404 0.595-2.222 0.595s-1.585-0.221-2.243-0.607l0.021 0.011-9.412-5.435c-1.338-0.783-2.222-2.213-2.222-3.849v0-10.868c0-1.636 0.884-3.066 2.201-3.838l0.021-0.011 9.412-5.435z"></path>
<path fill="#fff" style="fill: var(--color1, #fff)" d="M14.489 19.62c-0.3 0-0.538-0.085-0.716-0.256-0.17-0.178-0.255-0.416-0.255-0.715v-5.707c0-0.292 0.078-0.516 0.235-0.672s0.38-0.235 0.671-0.235h2.732c0.832 0 1.48 0.213 1.941 0.64 0.462 0.42 0.693 1.006 0.693 1.76 0 0.747-0.235 1.333-0.704 1.76-0.462 0.427-1.106 0.64-1.931 0.64h-1.674v1.813c0 0.299-0.089 0.537-0.267 0.715-0.178 0.171-0.42 0.256-0.726 0.256zM16.889 15.364c0.362 0 0.628-0.075 0.8-0.224 0.178-0.149 0.267-0.38 0.267-0.693 0-0.619-0.356-0.928-1.067-0.928h-1.408v1.845h1.408z"></path>
</symbol>
<symbol id="icon-plant" viewBox="0 0 32 32">
<path fill="#156963" style="fill: var(--color2, #156963)" d="M12.865 4.588c-2.796-2.794-8.267-3.118-12.139-3.118-0.401 0-0.727 0.325-0.727 0.727v0c0 3.872 0.323 9.343 3.118 12.138 1.18 1.18 2.989 1.707 4.782 1.707 1.949 0 3.88-0.623 4.965-1.709 2.082-2.082 2.464-7.283 0-9.745zM11.838 13.308c-1.555 1.553-5.872 1.819-7.691 0-2.256-2.257-2.647-6.841-2.689-10.381 3.54 0.042 8.124 0.433 10.38 2.689 1.82 1.819 1.553 6.137 0 7.691zM31.273 4.344c-3.872 0-9.343 0.323-12.138 3.118-2.465 2.463-2.083 7.663 0 9.745 1.085 1.084 3.015 1.707 4.963 1.707 1.793 0 3.6-0.526 4.783-1.705 2.794-2.796 3.118-8.267 3.118-12.139 0-0.401-0.325-0.727-0.727-0.727v0zM27.852 16.18c-1.82 1.819-6.138 1.553-7.691 0s-1.819-5.871 0-7.691c2.257-2.257 6.841-2.647 10.381-2.689-0.042 3.541-0.433 8.125-2.689 10.38z"></path>
<path fill="#156963" style="fill: var(--color2, #156963)" d="M26.027 10.633c-0.172-0.365-0.663-0.49-1.025-0.321-5.572 2.62-8.31 7.188-9.553 11.885-1.539-9.985-5.989-13.029-7.877-14.321-0.235-0.161-0.418-0.279-0.52-0.379-0.129-0.121-0.303-0.195-0.495-0.195-0.401 0-0.727 0.325-0.727 0.727 0 0.192 0.074 0.366 0.195 0.496l-0-0c0.143 0.143 0.392 0.321 0.727 0.551 2.127 1.455 7.778 5.321 7.778 20.731 0 0 0 0 0 0.001 0 0.401 0.325 0.727 0.727 0.727s0.726-0.325 0.727-0.726v-0c0-6.227 1.672-14.435 9.638-18.177 0-0.001 0.117-0.057 0.117-0.057 0.362-0.171 0.459-0.575 0.288-0.939z"></path>
</symbol>
<symbol id="icon-right-arrow" viewBox="0 0 32 32">
<path d="M6.667 17.333h15.813l-4.84 5.814c-0.18 0.226-0.289 0.515-0.289 0.83 0 0.737 0.598 1.335 1.335 1.335 0.401 0 0.761-0.177 1.006-0.457l0.001-0.002 6.667-8c0.045-0.063 0.085-0.13 0.12-0.2 0-0.066 0-0.106 0.093-0.173 0.060-0.153 0.092-0.316 0.094-0.48-0.002-0.173-0.036-0.338-0.097-0.489l0.003 0.009c0-0.067 0-0.107-0.093-0.173-0.039-0.077-0.079-0.143-0.123-0.205l0.003 0.005-6.667-8c-0.246-0.296-0.615-0.482-1.027-0.482-0.325 0-0.624 0.117-0.855 0.31l0.002-0.002c-0.295 0.246-0.482 0.615-0.482 1.026 0 0.326 0.117 0.624 0.311 0.856l-0.002-0.002 4.84 5.814h-15.813c-0.714 0.029-1.282 0.614-1.282 1.333s0.568 1.304 1.28 1.333l0.003 0z"></path>
</symbol>
</defs>
</svg>
